<?xml version="1.0" encoding="utf-8"?>
<!-- Generator: Adobe Illustrator 27.0.0, SVG Export Plug-In . SVG Version: 6.00 Build 0)  -->
<svg version="1.1" id="图层_1" xmlns="http://www.w3.org/2000/svg" xmlns:xlink="http://www.w3.org/1999/xlink" x="0px" y="0px"
	 viewBox="0 0 1366 768" style="enable-background:new 0 0 1366 768;" xml:space="preserve">
<style type="text/css">
	.st0{fill:none;}
	.st1{fill:#031867;fill-opacity:0;}
	.st2{fill:#031867;}
	.st3{fill:#0454F8;}
	.st4{fill:#1194F6;}
	.st5{fill:#3A4384;}
</style>
<rect x="160.8" class="st0" width="1366" height="768"/>
<g transform="translate(49.10694122314453,94.96004676818848)">
	<g transform="translate(0,0)">
		<g>
			<rect x="262.5" y="196.8" class="st1" width="184.3" height="184.6"/>
			<g>
				<g>
					<path class="st2" d="M262.9,319.2c-0.1-39.2-0.1-78.5-0.4-117.7c0-3.9,1.3-4.8,4.9-4.7c17.1,0.2,34.3,0.2,51.4,0
						c4.7-0.1,5.4,1.7,5.4,5.8c-0.1,18.5,0.1,37.1,0.2,55.7l-0.5,60.7L262.9,319.2z"/>
					<path class="st3" d="M262.9,319.2l60.9-0.4c0.1,0.4,0.2,0.8,0.3,1.3c0,18.2-0.2,36.5,0,54.8c0,4.3-0.6,6.4-5.7,6.3
						c-16.8-0.3-33.7-0.2-50.5-0.1c-3.7,0-5.5-0.6-5.5-5C262.8,357.1,262.8,338.2,262.9,319.2z M445.4,258.6l-60.3-0.4
						c0.1-18.2,0.3-36.4,0.1-54.7c0-5,1.5-6.5,6.4-6.4c16.4,0.3,32.7,0.3,49.1,0c4.7,0,6.2,1.4,6.1,6.1c-0.2,18.5-0.1,37-0.1,55.5
						C446.3,258.4,445.8,258.4,445.4,258.6z"/>
					<path class="st4" d="M324.1,320.1c-0.1-0.4-0.2-0.8-0.3-1.3l0.5-60.7l61,0.3c0.1,20.4,0.2,40.9,0.2,61.3l-0.6,0.2L324.1,320.1z
						"/>
					<path class="st2" d="M446.6,378.6V260.2c-0.4-0.5-0.8-1.1-1.2-1.6l-60.3-0.4l0.2,0.3c0.1,20.4,0.2,40.9,0.2,61.3
						c0.8,1.2,1.2,2.7,1.2,4.1c0-1.5-0.5-2.9-1.2-4.1l-0.6,0.2c0,18.5,0.1,37,0.1,55.5c0,3.2-0.4,5.9,4.5,5.9
						c17.8-0.3,35.6-0.1,53.3-0.1C444.5,381.2,447,381.9,446.6,378.6z"/>
					<path class="st5" d="M445.4,258.6c0.4-0.2,0.9-0.2,1.3,0c-0.1,0.5-0.1,1.1-0.2,1.6L445.4,258.6z"/>
				</g>
			</g>
		</g>
	</g>
	<g transform="translate(67,5.000362396240234)">
		<g transform="translate(0,0)">
			<g transform="scale(1)">
				<g>
					<path class="st2" d="M515.9,272.1l-19.2,1.5c0.6,3.7,0.8,7.4,0.8,11.2l0,0c0,7.1-0.5,12.6-1.4,16.4c-1,3.8-2.6,6.5-4.9,8
						c-2.3,1.5-5.6,2.3-9.8,2.3l0,0c-2.8,0-5.7-0.2-8.6-0.6l0,0l0.7-9.7c3.7,0.4,6,0.6,7,0.6l0,0c1.9,0,3.5-0.4,4.5-1.1
						c1-0.7,1.8-2.1,2.2-4c0.4-1.9,0.6-4.8,0.6-8.7l0,0c0-5-0.4-9.5-1.1-13.6l0,0l-28.1,2.2l-0.7-9.6l26.3-2.1
						c-2-6.1-5.1-11.6-9.1-16.6l0,0l9.5-3.6c1.7,2.1,3,4,3.9,5.7l0,0c4.8-5.7,7.2-10.4,7.2-14.1l0,0c0-5.3-4.9-8-14.7-8l0,0
						c-4.7,0-10.2,0.6-16.4,1.8l0,0l-1.5-10c5.9-0.9,11.4-1.4,16.6-1.4l0,0c8.8,0,15.6,1.4,20.3,4.3c4.6,2.8,7,6.8,7,11.9l0,0
						c0,7.2-4.6,15.6-13.7,25.2l0,0l1.2,4l20.6-1.6L515.9,272.1z M446.7,232.8c0.3,4,0.4,7.8,0.4,11.3l0,0c2.5,0.1,5.9,0.3,10.2,0.7
						l0,0l-0.4,9.8l-10.2-0.8c-0.8,11.6-3.5,21.1-8,28.4l0,0c2.1,1.3,6.3,3.6,12.4,7l0,0l-4.7,8.3c-5.8-2.9-10.5-5.5-14-7.7l0,0
						c-4.1,4-9.4,7.5-15.9,10.6l0,0l-4.6-8.3c5.3-2.7,9.6-5.6,12.7-8.4l0,0c-3.7-3.5-6.6-7.6-8.7-12.4c-2.1-4.8-3.5-10.6-4-17.3l0,0
						l-10.2,0.8l-0.4-9.6l3.3-0.3c1.7-0.2,4.1-0.4,7.2-0.6l0,0c0.1-5.2,0.7-11.4,1.9-18.8l0,0l9.5,1.4c-1.1,7.1-1.7,12.8-1.8,17l0,0
						c2.5-0.1,6.2-0.1,11.2-0.1l0,0h4.6c0-4.4-0.1-7.8-0.2-10.3l0,0L446.7,232.8z M430.8,276.2c3.1-5.6,5.1-13.2,5.9-22.7l0,0
						c-1.7-0.1-4.2-0.1-7.6-0.1l0,0c-3.3,0-5.8,0-7.6,0.1l0,0c0.4,5.3,1.3,9.7,2.8,13.3C425.9,270.4,428,273.6,430.8,276.2
						L430.8,276.2z M570.3,221.2l-5.1,8.7l-20.6-10.8l5.3-8.5L570.3,221.2z M583.5,216.7c15.4-2.3,27.2-3.5,35.5-3.5l0,0
						c8.3,0,14.6,1.3,19,3.8s7.3,6.7,9,12.4c1.7,5.7,2.5,13.9,2.5,24.6l0,0c0,3.5-0.2,10.4-0.6,20.7l0,0c-0.5,9.8-1.2,17-2.3,21.8
						c-1.1,4.8-2.9,8-5.3,9.7c-2.5,1.8-6.1,2.6-10.9,2.6l0,0c-1.6,0-4.6-0.2-9.2-0.6l0,0l1-9.7c3.7,0.5,6.3,0.7,8,0.7l0,0
						c2.6,0,4.5-0.6,5.6-1.9c1.1-1.2,2-3.4,2.4-6.6c0.5-3.1,0.8-8.2,1.1-15.2l0,0l0.2-3.3c0.3-6.8,0.4-12.8,0.4-17.8l0,0
						c0-8.5-0.5-14.9-1.6-19.3c-1.1-4.4-3.2-7.5-6.1-9.3c-3-1.8-7.4-2.8-13.1-2.8l0,0c-3.7,0-8.1,0.3-13.3,0.9
						c-5.2,0.6-12.3,1.6-21.4,2.8l0,0L583.5,216.7z M623.2,246.9h-5.3c-13.5,0-25.8,0.4-37,1.2l0,0c0-4.3,0-7.5-0.1-9.6l0,0
						c11.4-0.8,23.8-1.3,37-1.3l0,0h5.4V246.9z M565.8,277.8c-0.3,1.1-0.4,2.1-0.4,3l0,0c0,2.4,0.7,4,2.2,4.8
						c1.5,0.8,3.4,1.2,5.7,1.2l0,0l3.3-0.1l0.7,9.6c-0.9,0.2-2.3,0.3-4.1,0.3l0,0c-5.1,0-9.3-1.3-12.5-4s-4.9-6.4-4.9-11.2l0,0
						c0-1.7,0.2-3.4,0.6-4.9l0,0l3.5-14.8c0.7-3.1,1.1-5.5,1.1-7.2l0,0c0-2-0.5-3.5-1.4-4.4c-1-0.9-2.6-1.3-4.9-1.3l0,0
						c-2.4,0-6.4,0.6-11.9,1.8l0,0l-0.7-9.7c4.9-0.8,9.1-1.2,12.6-1.2l0,0c5.5,0,9.6,1.1,12.2,3.2c2.6,2.2,3.9,5.6,3.9,10.3l0,0
						c0,3.1-0.5,6.6-1.4,10.4l0,0L565.8,277.8z M626.7,279.6c-0.4,9.7-5,14.9-13.8,15.8l0,0c-2.5,0.3-4.7,0.4-6.6,0.4l0,0
						c-0.6,0-2.5-0.1-5.8-0.3l0,0c-4.5-0.3-8.3-1.5-11.3-3.5c-3-2.1-4.6-5.1-4.9-9.1l0,0c-0.1-1.2-0.1-2.8-0.1-4.9l0,0
						c0-3.7,0.5-8.6,1.5-14.9l0,0c0-0.1,0.4-2.5,1.1-7.3l0,0l10.1,0.3l-0.3,1.9c4.9-0.7,9.5-1.1,13.8-1.1l0,0
						c4.6,0,8.1,0.6,10.4,1.8c2.4,1.2,3.9,3,4.8,5.4c0.8,2.4,1.3,5.7,1.3,9.8l0,0C626.8,276.3,626.8,278.2,626.7,279.6L626.7,279.6z
						 M617.1,275.4c0-3.4-0.6-5.8-1.9-7.2c-1.2-1.4-3.6-2.2-7-2.2l0,0c-2.7,0-7.1,0.6-13.3,1.8l0,0c-0.6,4.6-0.9,8.6-0.8,12l0,0
						c0.1,2.2,0.8,3.8,2.1,4.7c1.3,0.9,3.3,1.5,6.1,1.7l0,0c0.9,0.1,2.2,0.2,3.9,0.2l0,0c1.8,0,3-0.1,3.4-0.2l0,0
						c2.3-0.3,4-0.6,4.9-1.1c1-0.5,1.6-1.4,2-2.8C616.9,280.9,617.1,278.6,617.1,275.4L617.1,275.4z M796.4,274.6
						c-13.5-0.6-23.8-0.8-31-0.8l0,0c-6.8,0-13.4,0.2-19.8,0.6l0,0l-11,40.5l-9.3-2.9l10.1-37l-14.2,1l-0.3-9.7l17.3-1.1l7.6-27.8
						c-9.4,0.9-16,1.5-19.9,1.8l0,0l-0.8-10.1l5-0.4c7.1-0.6,13.3-1,18.5-1.3l0,0l5.5-20.2l9.1,3l-4.5,16.9c6.6,0,11.9,0.6,15.9,1.9
						c4,1.2,6.9,3.4,8.8,6.5c1.9,3.1,2.8,7.4,2.8,12.8l0,0c0,4.8-0.6,10.2-1.8,16.3l0,0l11.8,0.4
						C796.3,269.1,796.4,272.4,796.4,274.6L796.4,274.6z M716.5,261.6l-8-12.7c-0.9,20-1.4,37.8-1.4,53.5l0,0v5.7h-9.7l-0.2-10.9
						c0-28,1.2-54.1,3.6-78.2l0,0l9.7,0.4c-0.7,8.4-1.2,15.3-1.5,20.7l0,0l3.6-2.5l12,19L716.5,261.6z M756.1,236.4l-7.7,28
						c5.8-0.3,11.2-0.4,16.3-0.4l0,0l10,0.1c1.3-6.2,1.9-11,1.9-14.5l0,0c0-5.1-1.2-8.6-3.7-10.5c-2.5-1.9-6.6-2.9-12.4-2.9l0,0
						C758.5,236.3,757.1,236.3,756.1,236.4L756.1,236.4z M680.9,268.5L688,241l9.2,2.4l-6.9,27.2L680.9,268.5z M755.4,284.8l6.2-7.5
						l28,28.8l-6.2,7.3L755.4,284.8z M911.3,271.4c-4,0.5-8.1,0.7-12.6,0.7l0,0c-5.6,0-12.5-0.7-20.7-2.1l0,0
						c-0.9,4.8-1.4,8.8-1.4,12.2l0,0c0,2.5,0.2,4.6,0.7,6.3l0,0c1.4,5.4,8.2,8.2,20.4,8.2l0,0c7.2,0,15.9-0.9,26-2.8l0,0l0.8,9.2
						c-9.4,1.9-18.3,2.9-26.8,2.9l0,0c-8,0-14.7-1.1-20-3.3c-5.3-2.2-8.7-5.8-10-10.8l0,0c-0.6-2.2-0.8-4.7-0.8-7.6l0,0
						c0-4.3,0.5-9.7,1.5-16.2l0,0l-3.1-0.6l1.3-9l7.7,1.5c6.6,1.3,11.4,2.1,14.2,2.5c2.9,0.4,5.8,0.6,8.8,0.6l0,0
						c3.1,0,6.6-0.3,10.7-0.8l0,0c2.4-0.3,4.2-1.3,5.4-3c1.2-1.7,1.9-5,2-10l0,0l0.1-6.2c0-4.8-0.4-8.4-1.1-10.9
						c-0.7-2.5-2.2-4.3-4.4-5.5c-2.2-1.1-5.5-1.7-10-1.7l0,0c-3.5,0-7.9,0.3-13.3,0.9s-13.2,1.6-23.5,3l0,0
						c-0.7,0.2-1.9,0.4-3.7,0.6l0,0l-1-10.1c19.6-2.8,33.6-4.1,41.9-4.1l0,0c7.1,0,12.4,0.9,15.9,2.8c3.5,1.9,5.9,4.9,7.1,9.1
						c1.2,4.1,1.8,10.2,1.8,18.1l0,0l-0.2,7.3c-0.1,6.5-1.3,11.1-3.8,13.8C918.9,269.3,915.5,270.9,911.3,271.4L911.3,271.4z
						 M848.4,225.5l-5.1,8.4L823.5,222l5.1-8.3L848.4,225.5z M844,283.1c-0.2,1.3-0.3,2.2-0.3,2.8l0,0c0,2.5,0.7,4.2,2.2,5
						c1.4,0.9,3.3,1.3,5.6,1.3l0,0l3.3-0.2l0.7,9.6c-0.9,0.2-2.3,0.3-4.1,0.3l0,0c-5.1,0-9.2-1.4-12.4-4.1
						c-3.2-2.7-4.9-6.5-4.9-11.5l0,0c0-1.4,0.1-2.9,0.4-4.6l0,0l3.4-17.6c0.7-3.4,1-5.7,1-7l0,0c0-2-0.5-3.5-1.5-4.4
						c-1-0.9-2.6-1.3-4.9-1.3l0,0c-2.7,0-6.6,0.6-11.7,1.7l0,0l-0.7-9.7c5-0.8,9.2-1.3,12.7-1.3l0,0c5.6,0,9.5,1.1,12,3.4
						c2.4,2.3,3.7,5.8,3.7,10.7l0,0c0,2.6-0.4,5.9-1.1,9.8l0,0L844,283.1z"/>
				</g>
			</g>
		</g>
		<g transform="translate(-4.235633850097656,41.04999923706055)">
			<g transform="scale(1, 1)">
				<g transform="scale(1)">
					<path class="st2" d="M410.6,306.1h-7v-2.6h10v12.3h-2l-0.7-2.9c-1.8,2.1-4.3,3.2-7.5,3.3l0,0c-3.1,0-5.5-0.8-7.1-2.4l0,0
						c-2.5-2.3-3.7-5.5-3.6-9.6l0,0c0.6-7.6,4.2-11.6,10.9-11.9l0,0c5.7,0.3,8.9,2.8,9.7,7.5l0,0h-3c-0.8-3.2-3.1-4.8-6.9-4.9l0,0
						c-4.8,0.3-7.2,3.5-7.5,9.4l0,0c0,6.3,2.5,9.5,7.6,9.5l0,0c1.8,0,3.4-0.5,4.7-1.5l0,0C409.8,310.8,410.6,308.8,410.6,306.1
						L410.6,306.1z M436.4,304.3L436.4,304.3c-0.3-6-3-9.2-8-9.5l0,0c-5.1,0.2-7.8,3.4-8,9.5l0,0c0.2,5.9,2.9,9,8,9.2l0,0
						C433.4,313.2,436.1,310.1,436.4,304.3z M439.6,304.3L439.6,304.3c-0.5,7.6-4.2,11.5-11.1,11.7l0,0c-7-0.2-10.8-4.2-11.3-11.7
						l0,0c0.4-7.9,4.2-12,11.3-12.1l0,0C435.3,292.4,439.1,296.5,439.6,304.3z M461.3,304.3L461.3,304.3c-0.3-6-3-9.2-8-9.5l0,0
						c-5.1,0.2-7.7,3.4-8,9.5l0,0c0.2,5.9,2.9,9,8,9.2l0,0C458.3,313.2,461,310.1,461.3,304.3z M464.4,304.3L464.4,304.3
						c-0.5,7.6-4.2,11.5-11.1,11.7l0,0c-7-0.2-10.8-4.2-11.2-11.7l0,0c0.4-7.9,4.2-12,11.2-12.1l0,0
						C460.2,292.4,463.9,296.5,464.4,304.3z M477.4,315.7h-9.2v-22.9h9.4c6.2,0.3,9.4,4.1,9.6,11.2l0,0
						C486.9,311.6,483.6,315.5,477.4,315.7L477.4,315.7z M477,295.3h-5.7v17.8h6c4.3-0.3,6.6-3.2,6.8-8.9l0,0
						C484,298.4,481.6,295.5,477,295.3L477,295.3z M512.7,296.7h-0.1l-5.3,19H504l-6-22.9h3.3l4.4,18.6h0.1l5.1-18.6h3.4l5.1,18.6
						h0.1l4.2-18.6h3.4l-6,22.9h-3.3L512.7,296.7z M548.2,304.3L548.2,304.3c-0.3-6-3-9.2-8-9.5l0,0c-5.1,0.2-7.7,3.4-8,9.5l0,0
						c0.2,5.9,2.9,9,8,9.2l0,0C545.2,313.2,547.8,310.1,548.2,304.3z M551.3,304.3L551.3,304.3c-0.5,7.6-4.2,11.5-11.1,11.7l0,0
						c-7-0.2-10.8-4.2-11.2-11.7l0,0c0.4-7.9,4.2-12,11.2-12.1l0,0C547.1,292.4,550.8,296.5,551.3,304.3z M565.9,305.8h-7.5v9.9
						h-3.1v-22.9h10.6c5.1,0,7.6,2,7.6,6.1l0,0c0,2.5-1.1,4.3-3.2,5.5l0,0c1.8,0.5,2.7,1.9,2.7,4.4l0,0l0.2,4.1
						c-0.1,1.2,0.3,1.9,1.1,2.3l0,0v0.5h-3.9c-0.3-1.1-0.4-3-0.5-5.7l0,0C570.1,307.2,568.7,305.8,565.9,305.8L565.9,305.8z
						 M566.2,295.3h-7.7v7.9h7.2c3.1,0,4.6-1.3,4.6-4l0,0C570.3,296.6,568.9,295.3,566.2,295.3L566.2,295.3z M587.3,315.7h-9.2
						v-22.9h9.4c6.2,0.3,9.4,4.1,9.6,11.2l0,0C596.7,311.6,593.5,315.5,587.3,315.7L587.3,315.7z M586.9,295.3h-5.7v17.8h6
						c4.3-0.3,6.6-3.2,6.8-8.9l0,0C593.8,298.4,591.5,295.5,586.9,295.3L586.9,295.3z M617.7,299.4L617.7,299.4h-2.9
						c-0.2-2.9-2.1-4.4-5.7-4.6l0,0c-3.4,0.1-5.1,1.4-5.1,4l0,0c0,1.7,0.9,2.6,2.8,2.9l0,0l6.5,1.5c3.4,0.8,5.1,2.9,5.1,6.3l0,0
						c-0.1,4.2-3.1,6.4-9,6.6l0,0c-3.3,0-5.6-0.7-6.9-2l0,0c-1.7-1.2-2.4-3.2-2.4-5.7l0,0h3c0.1,3.5,2.2,5.3,6.2,5.4l0,0
						c4-0.1,6-1.4,6.1-3.9l0,0c0.3-2.1-1.3-3.5-5-4.1l0,0l-4.8-1c-3.3-0.9-4.9-2.8-4.9-5.5l0,0c0.3-4.5,2.9-6.8,8-7l0,0
						C614.5,292.2,617.5,294.6,617.7,299.4z M625.4,310.5h4.7v5c-0.2,2.8-1.7,4.3-4.4,4.4l0,0v-2c1.1-0.2,1.6-1.1,1.6-2.5l0,0h-2
						V310.5z M676.4,312.8l-2.4-1.9l1.6-1.9l2.9,2.3c1.7-1.8,2.6-4.1,2.6-7l0,0c-0.3-6-3-9.2-8-9.5l0,0c-5.1,0.2-7.7,3.4-8,9.5l0,0
						c0.2,5.9,2.9,9,8,9.2l0,0C674.4,313.6,675.5,313.3,676.4,312.8L676.4,312.8z M681,313.2l3,2.4l-1.5,1.6l-3.5-2.4
						c-1.5,0.8-3.5,1.2-5.9,1.2l0,0c-7-0.2-10.8-4.2-11.2-11.7l0,0c0.4-7.9,4.2-12,11.2-12.1l0,0c6.9,0.2,10.6,4.3,11.1,12.1l0,0
						C684.2,308,683.1,310.9,681,313.2L681,313.2z M703,307.2v-14.4h3.1v14.8c-0.2,5.5-3.4,8.3-9.4,8.5l0,0c-5.6-0.2-8.5-2.8-8.8-8
						l0,0v-15.3h3.1v14.4c0.1,4.2,2,6.3,5.7,6.4l0,0C701,313.5,703,311.3,703,307.2L703,307.2z M711.4,292.8h3.1v22.9h-3.1V292.8z
						 M738.9,299.5L738.9,299.5h-3c-0.8-3.1-2.9-4.6-6.4-4.7l0,0c-4.8,0.2-7.3,3.3-7.5,9.2l0,0c0,6.3,2.5,9.5,7.6,9.5l0,0
						c3.5-0.1,5.7-2.2,6.5-6.4l0,0h3c-0.9,5.8-4.3,8.7-10.1,8.9l0,0c-6.7-0.2-10.1-4.2-10.3-11.9l0,0c0.3-7.7,3.9-11.7,10.8-12l0,0
						C735,292.3,738.1,294.8,738.9,299.5z M749.5,304.2l-3.6,3.4v8.1h-3.1v-22.9h3.1v11.2l11.1-11.2h4.4l-9.6,9.3l9.9,13.6h-4.1
						L749.5,304.2z M794.9,292.8v22.9h-3v-13.5c0-1.2,0-3.2,0-5.8l0,0l-6.5,19.3h-3.1l-6.4-19.3h-0.1c0,0.9,0,2.3,0.1,4.1l0,0
						c0,0.9,0,1.4,0,1.6l0,0v13.5h-3.1v-22.9h4.5l6.6,19.4l6.5-19.4H794.9z M802.9,312.9h13.8v2.8h-16.9v-22.9h16.6v2.6h-13.5v7.1
						h12.5v2.7h-12.5V312.9z M842.6,292.8v22.9h-3v-13.5c0-1.2,0-3.2,0-5.8l0,0l-6.5,19.3H830l-6.4-19.3h-0.1c0,0.9,0,2.3,0.1,4.1
						l0,0c0,0.9,0,1.4,0,1.6l0,0v13.5h-3.1v-22.9h4.5l6.6,19.4l6.5-19.4H842.6z M865.3,304.3L865.3,304.3c-0.3-6-3-9.2-8-9.5l0,0
						c-5.1,0.2-7.7,3.4-8,9.5l0,0c0.2,5.9,2.9,9,8,9.2l0,0C862.3,313.2,864.9,310.1,865.3,304.3z M868.4,304.3L868.4,304.3
						c-0.5,7.6-4.2,11.5-11.1,11.7l0,0c-7-0.2-10.7-4.2-11.2-11.7l0,0c0.4-7.9,4.2-12,11.2-12.1l0,0
						C864.2,292.4,867.9,296.5,868.4,304.3z M883,305.8h-7.5v9.9h-3.1v-22.9H883c5.1,0,7.6,2,7.6,6.1l0,0c0,2.5-1.1,4.3-3.3,5.5l0,0
						c1.8,0.5,2.7,1.9,2.7,4.4l0,0l0.3,4.1c-0.1,1.2,0.3,1.9,1.1,2.3l0,0v0.5h-3.9c-0.2-1.1-0.4-3-0.5-5.7l0,0
						C887.2,307.2,885.9,305.8,883,305.8L883,305.8z M883.3,295.3h-7.8v7.9h7.2c3.1,0,4.6-1.3,4.6-4l0,0
						C887.4,296.6,886,295.3,883.3,295.3L883.3,295.3z M895.5,292.8h3.1v22.9h-3.1V292.8z M907.4,312.9h13.7v2.8h-16.9v-22.9h16.6
						v2.6h-13.5v7.1h12.5v2.7h-12.5V312.9z M941.9,299.4L941.9,299.4H939c-0.2-2.9-2.1-4.4-5.7-4.6l0,0c-3.4,0.1-5.1,1.4-5.1,4l0,0
						c0,1.7,0.9,2.6,2.8,2.9l0,0l6.5,1.5c3.4,0.8,5.1,2.9,5.1,6.3l0,0c-0.1,4.2-3.1,6.4-9,6.6l0,0c-3.2,0-5.5-0.7-6.9-2l0,0
						c-1.7-1.2-2.4-3.2-2.4-5.7l0,0h3c0.1,3.5,2.2,5.3,6.2,5.4l0,0c4-0.1,6.1-1.4,6.1-3.9l0,0c0.3-2.1-1.3-3.5-5-4.1l0,0l-4.8-1
						c-3.2-0.9-4.9-2.8-4.9-5.5l0,0c0.2-4.5,2.9-6.8,8-7l0,0C938.8,292.2,941.7,294.6,941.9,299.4z"/>
				</g>
			</g>
		</g>
	</g>
</g>
</svg>
